<svg width="150" height="31" viewBox="0 0 150 31" fill="none" xmlns="http://www.w3.org/2000/svg">
<g filter="url(#filter0_dd_3_143)">
<path d="M15.9403 5.61648C15.9688 4.90625 15.7614 4.35795 15.3182 3.97159C14.8807 3.58523 14.2188 3.39204 13.3324 3.39204C12.7301 3.39204 12.2074 3.47727 11.7642 3.64773C11.321 3.8125 10.9659 4.04261 10.6989 4.33807C10.4375 4.62784 10.2756 4.96307 10.2131 5.34375C10.1506 5.65625 10.1705 5.92898 10.2727 6.16193C10.3807 6.39489 10.5483 6.59659 10.7756 6.76705C11.0085 6.93182 11.2841 7.0767 11.6023 7.2017C11.9205 7.32102 12.2585 7.4233 12.6165 7.50852L14.1165 7.88352C14.8494 8.05398 15.5085 8.28125 16.0938 8.56534C16.6847 8.84943 17.179 9.19886 17.5767 9.61364C17.9801 10.0284 18.2642 10.517 18.429 11.0795C18.5938 11.642 18.6165 12.2869 18.4972 13.0142C18.3153 14.0824 17.892 15.0085 17.2273 15.7926C16.5625 16.571 15.6903 17.1761 14.6108 17.608C13.5313 18.0341 12.2813 18.2472 10.8608 18.2472C9.4517 18.2472 8.26136 18.0312 7.28977 17.5994C6.31818 17.1676 5.6108 16.5284 5.16761 15.6818C4.73011 14.8295 4.59943 13.7756 4.77557 12.5199H8.34659C8.28409 13.1051 8.36932 13.5937 8.60227 13.9858C8.84091 14.3722 9.19602 14.6648 9.66761 14.8636C10.1392 15.0568 10.6932 15.1534 11.3295 15.1534C11.9602 15.1534 12.5199 15.0625 13.0085 14.8807C13.5028 14.6989 13.9034 14.446 14.2102 14.1222C14.517 13.7983 14.7045 13.4261 14.7727 13.0057C14.8409 12.6136 14.7812 12.2841 14.5938 12.017C14.4062 11.75 14.1051 11.5227 13.6903 11.3352C13.2813 11.142 12.7727 10.9716 12.1648 10.8239L10.3409 10.3466C8.93182 9.98864 7.86648 9.42898 7.14489 8.66761C6.4233 7.90625 6.16477 6.88068 6.36932 5.59091C6.55114 4.53409 6.99148 3.6108 7.69034 2.82102C8.39489 2.02557 9.28125 1.40909 10.3494 0.971591C11.4233 0.528409 12.5966 0.306818 13.8693 0.306818C15.1648 0.306818 16.2585 0.53125 17.1506 0.980114C18.0426 1.4233 18.6932 2.04261 19.1023 2.83807C19.5114 3.63352 19.6364 4.55966 19.4773 5.61648H15.9403ZM24.9936 10.4318L23.7322 18H20.1101L23.0078 0.545454H26.5277L25.4368 7.21875H25.5817C26.0021 6.44602 26.5788 5.84091 27.3118 5.40341C28.0447 4.96023 28.9112 4.73864 29.9112 4.73864C30.8203 4.73864 31.5788 4.9375 32.1868 5.33523C32.8004 5.72727 33.2351 6.29261 33.4908 7.03125C33.7464 7.7642 33.7891 8.64205 33.6186 9.66477L32.2209 18H28.5987L29.8771 10.3125C30.0078 9.50568 29.9027 8.87784 29.5618 8.42898C29.2266 7.98011 28.6925 7.75568 27.9595 7.75568C27.4652 7.75568 27.0107 7.8608 26.5959 8.07102C26.1811 8.28125 25.8317 8.58807 25.5476 8.99148C25.2692 9.3892 25.0845 9.86932 24.9936 10.4318ZM38.7599 18.2472C37.9304 18.2472 37.2116 18.1023 36.6037 17.8125C36.0014 17.517 35.5582 17.0795 35.2741 16.5C34.9901 15.9205 34.919 15.2017 35.0611 14.3438C35.1861 13.6165 35.4219 13.0085 35.7685 12.5199C36.1207 12.0256 36.5497 11.6278 37.0554 11.3267C37.5611 11.0256 38.1207 10.7955 38.7344 10.6364C39.3537 10.4773 39.9929 10.3693 40.652 10.3125C41.4134 10.233 42.0327 10.1562 42.5099 10.0824C42.9929 10.0085 43.3537 9.90341 43.5923 9.76705C43.831 9.625 43.9759 9.41477 44.027 9.13636V9.08523C44.1122 8.55114 44.0128 8.13636 43.7287 7.84091C43.4503 7.53977 43.0043 7.3892 42.3906 7.3892C41.7429 7.3892 41.1918 7.53125 40.7372 7.81534C40.2884 8.09943 39.9673 8.46023 39.7741 8.89773L36.4673 8.625C36.7628 7.82955 37.2088 7.14205 37.8054 6.5625C38.4077 5.97727 39.1321 5.52841 39.9787 5.21591C40.8253 4.89773 41.7741 4.73864 42.8253 4.73864C43.5526 4.73864 44.2315 4.82386 44.8622 4.99432C45.4986 5.16477 46.0469 5.42898 46.5071 5.78693C46.973 6.14489 47.3082 6.60511 47.5128 7.16761C47.723 7.72443 47.7656 8.39205 47.6406 9.17045L46.1662 18H42.723L43.0298 16.1847H42.9276C42.6491 16.5938 42.3082 16.9545 41.9048 17.267C41.5014 17.5739 41.0384 17.8153 40.5156 17.9915C39.9929 18.1619 39.4077 18.2472 38.7599 18.2472ZM40.2173 15.7415C40.7457 15.7415 41.2315 15.6364 41.6747 15.4261C42.1236 15.2102 42.4929 14.9205 42.7827 14.5568C43.0781 14.1932 43.2656 13.7812 43.3452 13.321L43.5668 11.9318C43.4531 12.0057 43.2884 12.071 43.0724 12.1278C42.8622 12.1847 42.6321 12.2386 42.3821 12.2898C42.1378 12.3352 41.8906 12.3778 41.6406 12.4176C41.3906 12.4517 41.1662 12.4858 40.9673 12.5199C40.5298 12.5824 40.1378 12.6818 39.7912 12.8182C39.4446 12.9545 39.1634 13.1392 38.9474 13.3722C38.7315 13.5994 38.598 13.8835 38.5469 14.2244C38.4673 14.7188 38.5838 15.0966 38.8963 15.358C39.2145 15.6136 39.6548 15.7415 40.2173 15.7415ZM48.983 18L51.1648 4.90909H54.6847L54.3011 7.19318H54.4375C54.8125 6.38068 55.3153 5.76705 55.946 5.35227C56.5824 4.93182 57.267 4.72159 58 4.72159C58.1818 4.72159 58.3722 4.73295 58.571 4.75568C58.7756 4.77273 58.9574 4.80114 59.1165 4.84091L58.571 8.07102C58.4119 8.0142 58.1847 7.96875 57.8892 7.93466C57.5994 7.89489 57.3239 7.875 57.0625 7.875C56.5341 7.875 56.0426 7.99148 55.5881 8.22443C55.1335 8.4517 54.75 8.76989 54.4375 9.17898C54.1307 9.58807 53.929 10.0597 53.8324 10.5938L52.6136 18H48.983ZM58.0107 22.9091L61.0277 4.90909H64.6072L64.2408 7.10795H64.4027C64.6186 6.75568 64.9055 6.39773 65.2635 6.03409C65.6271 5.66477 66.0788 5.35795 66.6186 5.11364C67.1584 4.86364 67.7919 4.73864 68.5192 4.73864C69.4794 4.73864 70.3175 4.98864 71.0334 5.48864C71.7493 5.98295 72.2663 6.73011 72.5845 7.73011C72.9084 8.72443 72.9453 9.97159 72.6953 11.4716C72.4567 12.9318 72.0163 14.1648 71.3743 15.1705C70.7379 16.1705 69.9737 16.929 69.0817 17.446C68.1953 17.9574 67.255 18.2131 66.2607 18.2131C65.5561 18.2131 64.9766 18.0966 64.522 17.8636C64.0732 17.6307 63.7237 17.3381 63.4737 16.9858C63.2237 16.6278 63.0476 16.267 62.9453 15.9034H62.8089L61.6499 22.9091H58.0107ZM63.4908 11.4545C63.3658 12.233 63.3601 12.9119 63.4737 13.4915C63.593 14.071 63.8317 14.5227 64.1896 14.8466C64.5476 15.1648 65.0192 15.3239 65.6044 15.3239C66.1953 15.3239 66.7209 15.1619 67.1811 14.8381C67.6413 14.5085 68.0249 14.054 68.3317 13.4744C68.6385 12.8892 68.8572 12.2159 68.9879 11.4545C69.1072 10.6989 69.1101 10.0341 68.9964 9.46023C68.8828 8.88636 68.6499 8.4375 68.2976 8.11364C67.9453 7.78977 67.468 7.62784 66.8658 7.62784C66.2805 7.62784 65.755 7.78409 65.2891 8.09659C64.8288 8.40909 64.4453 8.85227 64.1385 9.42614C63.8317 10 63.6158 10.6761 63.4908 11.4545ZM87.6165 6.1875C87.571 5.77273 87.4744 5.40625 87.3267 5.08807C87.1847 4.7642 86.9886 4.49148 86.7386 4.26989C86.4886 4.04261 86.1847 3.86932 85.8267 3.75C85.4688 3.63068 85.054 3.57102 84.5824 3.57102C83.6903 3.57102 82.8551 3.79261 82.0767 4.23579C81.304 4.67898 80.6449 5.32386 80.0994 6.17045C79.554 7.01136 79.1818 8.03977 78.983 9.25568C78.7784 10.4716 78.7784 11.5057 78.983 12.358C79.1932 13.2102 79.5881 13.8608 80.1676 14.3097C80.7528 14.7528 81.5057 14.9744 82.4261 14.9744C83.2614 14.9744 84.0114 14.8267 84.6761 14.5312C85.3409 14.2301 85.8835 13.8068 86.304 13.2614C86.7301 12.7159 87.0028 12.071 87.1222 11.3267L87.8551 11.4375H83.3636L83.8239 8.65909H91.1278L90.7528 10.858C90.5085 12.392 89.9716 13.7102 89.142 14.8125C88.3125 15.9148 87.2784 16.7614 86.0398 17.3523C84.8068 17.9432 83.4545 18.2386 81.983 18.2386C80.3466 18.2386 78.9688 17.8778 77.8494 17.1562C76.7358 16.429 75.9432 15.3977 75.4716 14.0625C75.0057 12.7216 74.9233 11.1307 75.2244 9.28977C75.4574 7.875 75.8722 6.61364 76.4688 5.50568C77.071 4.39205 77.8068 3.44886 78.6761 2.67614C79.5455 1.90341 80.5085 1.31534 81.5653 0.911931C82.6278 0.508522 83.733 0.306818 84.8807 0.306818C85.8693 0.306818 86.7642 0.451704 87.5653 0.741477C88.3722 1.02557 89.0625 1.42898 89.6364 1.9517C90.2159 2.47443 90.6534 3.09659 90.9489 3.81818C91.25 4.53409 91.3892 5.32386 91.3665 6.1875H87.6165ZM101.596 12.4261L102.849 4.90909H106.479L104.298 18H100.812L101.204 15.6222H101.067C100.664 16.3892 100.076 17.0057 99.3033 17.4716C98.5305 17.9375 97.6527 18.1705 96.6697 18.1705C95.7947 18.1705 95.0561 17.9716 94.4538 17.5739C93.8572 17.1761 93.4339 16.6108 93.1839 15.8778C92.9339 15.1449 92.8913 14.267 93.0561 13.2443L94.4538 4.90909H98.0845L96.8061 12.5966C96.6868 13.3693 96.7947 13.9801 97.13 14.429C97.4652 14.8778 97.9766 15.1023 98.6641 15.1023C99.1016 15.1023 99.5249 15.0028 99.9339 14.804C100.349 14.5994 100.707 14.2983 101.008 13.9006C101.309 13.5028 101.505 13.0114 101.596 12.4261ZM110.901 18.2472C110.071 18.2472 109.352 18.1023 108.744 17.8125C108.142 17.517 107.699 17.0795 107.415 16.5C107.131 15.9205 107.06 15.2017 107.202 14.3438C107.327 13.6165 107.563 13.0085 107.909 12.5199C108.261 12.0256 108.69 11.6278 109.196 11.3267C109.702 11.0256 110.261 10.7955 110.875 10.6364C111.494 10.4773 112.134 10.3693 112.793 10.3125C113.554 10.233 114.173 10.1562 114.651 10.0824C115.134 10.0085 115.494 9.90341 115.733 9.76705C115.972 9.625 116.116 9.41477 116.168 9.13636V9.08523C116.253 8.55114 116.153 8.13636 115.869 7.84091C115.591 7.53977 115.145 7.3892 114.531 7.3892C113.884 7.3892 113.332 7.53125 112.878 7.81534C112.429 8.09943 112.108 8.46023 111.915 8.89773L108.608 8.625C108.903 7.82955 109.349 7.14205 109.946 6.5625C110.548 5.97727 111.273 5.52841 112.119 5.21591C112.966 4.89773 113.915 4.73864 114.966 4.73864C115.693 4.73864 116.372 4.82386 117.003 4.99432C117.639 5.16477 118.188 5.42898 118.648 5.78693C119.114 6.14489 119.449 6.60511 119.653 7.16761C119.864 7.72443 119.906 8.39205 119.781 9.17045L118.307 18H114.864L115.17 16.1847H115.068C114.79 16.5938 114.449 16.9545 114.045 17.267C113.642 17.5739 113.179 17.8153 112.656 17.9915C112.134 18.1619 111.548 18.2472 110.901 18.2472ZM112.358 15.7415C112.886 15.7415 113.372 15.6364 113.815 15.4261C114.264 15.2102 114.634 14.9205 114.923 14.5568C115.219 14.1932 115.406 13.7812 115.486 13.321L115.707 11.9318C115.594 12.0057 115.429 12.071 115.213 12.1278C115.003 12.1847 114.773 12.2386 114.523 12.2898C114.278 12.3352 114.031 12.3778 113.781 12.4176C113.531 12.4517 113.307 12.4858 113.108 12.5199C112.67 12.5824 112.278 12.6818 111.932 12.8182C111.585 12.9545 111.304 13.1392 111.088 13.3722C110.872 13.5994 110.739 13.8835 110.688 14.2244C110.608 14.7188 110.724 15.0966 111.037 15.358C111.355 15.6136 111.795 15.7415 112.358 15.7415ZM121.124 18L123.305 4.90909H126.825L126.442 7.19318H126.578C126.953 6.38068 127.456 5.76705 128.087 5.35227C128.723 4.93182 129.408 4.72159 130.141 4.72159C130.322 4.72159 130.513 4.73295 130.712 4.75568C130.916 4.77273 131.098 4.80114 131.257 4.84091L130.712 8.07102C130.553 8.0142 130.325 7.96875 130.03 7.93466C129.74 7.89489 129.464 7.875 129.203 7.875C128.675 7.875 128.183 7.99148 127.729 8.22443C127.274 8.4517 126.891 8.76989 126.578 9.17898C126.271 9.58807 126.07 10.0597 125.973 10.5938L124.754 18H121.124ZM135.141 18.2131C134.141 18.2131 133.281 17.9574 132.559 17.446C131.843 16.929 131.332 16.1705 131.025 15.1705C130.724 14.1648 130.695 12.9318 130.94 11.4716C131.19 9.97159 131.638 8.72443 132.286 7.73011C132.934 6.73011 133.701 5.98295 134.587 5.48864C135.474 4.98864 136.397 4.73864 137.357 4.73864C138.085 4.73864 138.673 4.86364 139.121 5.11364C139.576 5.35795 139.925 5.66477 140.17 6.03409C140.414 6.39773 140.585 6.75568 140.681 7.10795H140.792L141.891 0.545454H145.513L142.616 18H139.036L139.386 15.9034H139.232C139.005 16.267 138.704 16.6278 138.329 16.9858C137.96 17.3381 137.511 17.6307 136.982 17.8636C136.46 18.0966 135.846 18.2131 135.141 18.2131ZM136.744 15.3239C137.323 15.3239 137.846 15.1648 138.312 14.8466C138.778 14.5227 139.17 14.071 139.488 13.4915C139.806 12.9119 140.028 12.233 140.153 11.4545C140.283 10.6761 140.286 10 140.161 9.42614C140.036 8.85227 139.792 8.40909 139.428 8.09659C139.07 7.78409 138.596 7.62784 138.005 7.62784C137.408 7.62784 136.88 7.78977 136.42 8.11364C135.965 8.4375 135.587 8.88636 135.286 9.46023C134.991 10.0341 134.781 10.6989 134.656 11.4545C134.531 12.2159 134.522 12.8892 134.63 13.4744C134.738 14.054 134.968 14.5085 135.32 14.8381C135.673 15.1619 136.147 15.3239 136.744 15.3239Z" fill="#FF6F00"/>
</g>
<defs>
<filter id="filter0_dd_3_143" x="0.511368" y="0.306816" width="149.002" height="30.6023" filterUnits="userSpaceOnUse" color-interpolation-filters="sRGB">
<feFlood flood-opacity="0" result="BackgroundImageFix"/>
<feColorMatrix in="SourceAlpha" type="matrix" values="0 0 0 0 0 0 0 0 0 0 0 0 0 0 0 0 0 0 127 0" result="hardAlpha"/>
<feOffset dy="4"/>
<feGaussianBlur stdDeviation="2"/>
<feComposite in2="hardAlpha" operator="out"/>
<feColorMatrix type="matrix" values="0 0 0 0 0 0 0 0 0 0 0 0 0 0 0 0 0 0 0.25 0"/>
<feBlend mode="normal" in2="BackgroundImageFix" result="effect1_dropShadow_3_143"/>
<feColorMatrix in="SourceAlpha" type="matrix" values="0 0 0 0 0 0 0 0 0 0 0 0 0 0 0 0 0 0 127 0" result="hardAlpha"/>
<feOffset dy="4"/>
<feGaussianBlur stdDeviation="2"/>
<feComposite in2="hardAlpha" operator="out"/>
<feColorMatrix type="matrix" values="0 0 0 0 0 0 0 0 0 0 0 0 0 0 0 0 0 0 0.25 0"/>
<feBlend mode="normal" in2="effect1_dropShadow_3_143" result="effect2_dropShadow_3_143"/>
<feBlend mode="normal" in="SourceGraphic" in2="effect2_dropShadow_3_143" result="shape"/>
</filter>
</defs>
</svg>
